<svg width="42" height="67" viewBox="0 0 42 67" fill="none" xmlns="http://www.w3.org/2000/svg">
<path d="M0.5 66.8164L0.59 63.0364L30.92 35.4064C33.68 32.9164 35.465 30.5314 36.275 28.2514C37.085 25.9414 37.49 23.4364 37.49 20.7364C37.49 17.7364 36.755 15.0064 35.285 12.5464C33.815 10.0864 31.85 8.1214 29.39 6.65141C26.93 5.1814 24.2 4.4464 21.2 4.4464C18.11 4.4464 15.335 5.1964 12.875 6.6964C10.415 8.1964 8.465 10.1914 7.025 12.6814C5.615 15.1414 4.91 17.8264 4.91 20.7364H1.13C1.13 17.0464 2.03 13.6864 3.83 10.6564C5.66 7.59641 8.09 5.1664 11.12 3.3664C14.15 1.5664 17.51 0.666405 21.2 0.666405C24.98 0.666405 28.385 1.5964 31.415 3.4564C34.445 5.2864 36.845 7.7314 38.615 10.7914C40.385 13.8214 41.27 17.1364 41.27 20.7364C41.27 23.1964 41 25.4314 40.46 27.4414C39.95 29.4514 39.11 31.3264 37.94 33.0664C36.8 34.8064 35.3 36.5164 33.44 38.1964L3.2 65.7364L2.12 63.0364H41.27V66.8164H0.5Z" fill="#F5BD01"/>
</svg>
