<svg width="40" height="67" viewBox="0 0 40 67" fill="none" xmlns="http://www.w3.org/2000/svg">
<path d="M19.95 66.6664C16.77 66.6664 13.89 66.1414 11.31 65.0914C8.73 64.0414 6.525 62.5264 4.695 60.5464C2.865 58.5364 1.5 56.1364 0.6 53.3464L4.11 52.0864C5.43 55.7164 7.485 58.4464 10.275 60.2764C13.065 62.1064 16.26 62.9764 19.86 62.8864C23.25 62.7964 26.115 62.0464 28.455 60.6364C30.795 59.2264 32.565 57.2764 33.765 54.7864C34.995 52.2664 35.61 49.2964 35.61 45.8764C35.61 40.6564 34.155 36.5314 31.245 33.5014C28.365 30.4714 24.51 28.9564 19.68 28.9564C18.39 28.9564 16.98 29.1364 15.45 29.4964C13.95 29.8564 12.57 30.3364 11.31 30.9364L9.06 27.8764L36.51 1.5064L37.68 4.2964H3.21V0.516404H39.12V4.3864L14.19 28.1464L14.1 25.8964C18.96 24.7564 23.31 24.8764 27.15 26.2564C31.02 27.6364 34.065 30.0364 36.285 33.4564C38.535 36.8464 39.66 40.9864 39.66 45.8764C39.66 50.0764 38.835 53.7364 37.185 56.8564C35.535 59.9764 33.225 62.3914 30.255 64.1014C27.315 65.8114 23.88 66.6664 19.95 66.6664Z" fill="#F5BD01"/>
</svg>
