<svg width="357" height="132" viewBox="0 0 357 132" fill="none" xmlns="http://www.w3.org/2000/svg">
<path d="M3.36 43V8.44H17.064C19.4 8.44 21.312 8.912 22.8 9.856C24.304 10.784 25.416 11.976 26.136 13.432C26.872 14.888 27.24 16.392 27.24 17.944C27.24 19.848 26.784 21.464 25.872 22.792C24.976 24.12 23.752 25.016 22.2 25.48V24.28C24.376 24.776 26.024 25.808 27.144 27.376C28.28 28.944 28.848 30.728 28.848 32.728C28.848 34.776 28.456 36.568 27.672 38.104C26.888 39.64 25.72 40.84 24.168 41.704C22.632 42.568 20.728 43 18.456 43H3.36ZM9.216 37.552H17.736C18.744 37.552 19.648 37.352 20.448 36.952C21.248 36.536 21.872 35.96 22.32 35.224C22.784 34.472 23.016 33.584 23.016 32.56C23.016 31.632 22.816 30.8 22.416 30.064C22.016 29.328 21.432 28.744 20.664 28.312C19.896 27.864 18.976 27.64 17.904 27.64H9.216V37.552ZM9.216 22.24H16.992C17.824 22.24 18.568 22.08 19.224 21.76C19.88 21.44 20.4 20.968 20.784 20.344C21.168 19.72 21.36 18.952 21.36 18.04C21.36 16.84 20.976 15.84 20.208 15.04C19.44 14.24 18.368 13.84 16.992 13.84H9.216V22.24ZM33.5692 43V21.616H29.8012V17.08H39.3533V25.72H43.9853C44.7213 25.72 45.5373 25.736 46.4333 25.768C47.3293 25.8 48.0893 25.872 48.7133 25.984C50.1693 26.304 51.4093 26.816 52.4333 27.52C53.4573 28.224 54.2413 29.144 54.7853 30.28C55.3453 31.416 55.6253 32.784 55.6253 34.384C55.6253 36.672 55.0333 38.504 53.8493 39.88C52.6653 41.24 51.0093 42.168 48.8813 42.664C48.2413 42.808 47.4573 42.904 46.5293 42.952C45.6172 42.984 44.8012 43 44.0813 43H33.5692ZM39.3533 38.464H44.5852C44.9213 38.464 45.3053 38.448 45.7373 38.416C46.1693 38.384 46.5852 38.312 46.9853 38.2C47.7053 38.008 48.3453 37.576 48.9053 36.904C49.4653 36.216 49.7453 35.376 49.7453 34.384C49.7453 33.344 49.4573 32.488 48.8813 31.816C48.3212 31.144 47.6413 30.704 46.8413 30.496C46.4573 30.4 46.0652 30.336 45.6653 30.304C45.2813 30.272 44.9213 30.256 44.5852 30.256H39.3533V38.464ZM58.6976 43V17.08H81.2096V43H75.4256V22.504H64.4816V43H58.6976ZM98.9648 43.72C96.4368 43.72 94.3168 43.12 92.6048 41.92C90.8928 40.72 89.6048 39.088 88.7408 37.024C87.8768 34.944 87.4448 32.616 87.4448 30.04C87.4448 27.432 87.8768 25.096 88.7408 23.032C89.6048 20.968 90.8688 19.344 92.5328 18.16C94.2128 16.96 96.2848 16.36 98.7488 16.36C101.197 16.36 103.317 16.96 105.109 18.16C106.917 19.344 108.317 20.968 109.309 23.032C110.301 25.08 110.797 27.416 110.797 30.04C110.797 32.632 110.309 34.96 109.333 37.024C108.357 39.088 106.981 40.72 105.205 41.92C103.429 43.12 101.349 43.72 98.9648 43.72ZM86.4608 54.52V17.08H91.5728V35.272H92.2928V54.52H86.4608ZM98.0768 38.536C99.5808 38.536 100.821 38.16 101.797 37.408C102.773 36.656 103.493 35.64 103.957 34.36C104.437 33.064 104.677 31.624 104.677 30.04C104.677 28.472 104.437 27.048 103.957 25.768C103.477 24.472 102.733 23.448 101.725 22.696C100.717 21.928 99.4368 21.544 97.8848 21.544C96.4128 21.544 95.2128 21.904 94.2848 22.624C93.3568 23.328 92.6688 24.32 92.2208 25.6C91.7888 26.864 91.5728 28.344 91.5728 30.04C91.5728 31.72 91.7888 33.2 92.2208 34.48C92.6688 35.76 93.3648 36.76 94.3088 37.48C95.2688 38.184 96.5248 38.536 98.0768 38.536ZM126.095 43.72C123.503 43.72 121.239 43.136 119.303 41.968C117.367 40.8 115.863 39.192 114.791 37.144C113.735 35.08 113.207 32.712 113.207 30.04C113.207 27.32 113.751 24.936 114.839 22.888C115.927 20.84 117.439 19.24 119.375 18.088C121.311 16.936 123.551 16.36 126.095 16.36C128.703 16.36 130.975 16.944 132.911 18.112C134.847 19.28 136.351 20.896 137.423 22.96C138.495 25.008 139.031 27.368 139.031 30.04C139.031 32.728 138.487 35.104 137.399 37.168C136.327 39.216 134.823 40.824 132.887 41.992C130.951 43.144 128.687 43.72 126.095 43.72ZM126.095 38.296C128.399 38.296 130.111 37.528 131.231 35.992C132.351 34.456 132.911 32.472 132.911 30.04C132.911 27.528 132.343 25.528 131.207 24.04C130.071 22.536 128.367 21.784 126.095 21.784C124.543 21.784 123.263 22.136 122.255 22.84C121.263 23.528 120.527 24.496 120.047 25.744C119.567 26.976 119.327 28.408 119.327 30.04C119.327 32.552 119.895 34.56 121.031 36.064C122.183 37.552 123.871 38.296 126.095 38.296ZM154.135 43.72C151.463 43.72 149.183 43.128 147.295 41.944C145.407 40.744 143.959 39.112 142.951 37.048C141.959 34.984 141.455 32.648 141.439 30.04C141.455 27.384 141.975 25.032 142.999 22.984C144.039 20.92 145.511 19.304 147.415 18.136C149.319 16.952 151.583 16.36 154.207 16.36C157.151 16.36 159.639 17.104 161.671 18.592C163.719 20.064 165.055 22.08 165.679 24.64L159.919 26.2C159.471 24.808 158.727 23.728 157.687 22.96C156.647 22.176 155.463 21.784 154.135 21.784C152.631 21.784 151.391 22.144 150.415 22.864C149.439 23.568 148.719 24.544 148.255 25.792C147.791 27.04 147.559 28.456 147.559 30.04C147.559 32.504 148.111 34.496 149.215 36.016C150.319 37.536 151.959 38.296 154.135 38.296C155.671 38.296 156.879 37.944 157.759 37.24C158.655 36.536 159.327 35.52 159.775 34.192L165.679 35.512C164.879 38.152 163.479 40.184 161.479 41.608C159.479 43.016 157.031 43.72 154.135 43.72ZM191.512 17.08V43H185.968V26.08L173.632 43H169V17.08H174.544V33.568L186.928 17.08H191.512ZM227.445 17.08V43H221.901V26.08L209.565 43H204.933V17.08H210.477V33.568L222.861 17.08H227.445ZM14.808 93.72C12.216 93.72 9.952 93.136 8.016 91.968C6.08 90.8 4.576 89.192 3.504 87.144C2.448 85.08 1.92 82.712 1.92 80.04C1.92 77.32 2.464 74.936 3.552 72.888C4.64 70.84 6.152 69.24 8.088 68.088C10.024 66.936 12.264 66.36 14.808 66.36C17.416 66.36 19.688 66.944 21.624 68.112C23.56 69.28 25.064 70.896 26.136 72.96C27.208 75.008 27.744 77.368 27.744 80.04C27.744 82.728 27.2 85.104 26.112 87.168C25.04 89.216 23.536 90.824 21.6 91.992C19.664 93.144 17.4 93.72 14.808 93.72ZM14.808 88.296C17.112 88.296 18.824 87.528 19.944 85.992C21.064 84.456 21.624 82.472 21.624 80.04C21.624 77.528 21.056 75.528 19.92 74.04C18.784 72.536 17.08 71.784 14.808 71.784C13.256 71.784 11.976 72.136 10.968 72.84C9.976 73.528 9.24 74.496 8.76 75.744C8.28 76.976 8.04 78.408 8.04 80.04C8.04 82.552 8.608 84.56 9.744 86.064C10.896 87.552 12.584 88.296 14.808 88.296ZM37.5802 93V72.216H28.9162V67.08H52.0282V72.216H43.3642V93H37.5802ZM55.1362 93V67.08H73.6162V72.504H60.9202V93H55.1362ZM87.738 93.72C85.146 93.72 82.882 93.136 80.946 91.968C79.01 90.8 77.506 89.192 76.434 87.144C75.378 85.08 74.85 82.712 74.85 80.04C74.85 77.32 75.394 74.936 76.482 72.888C77.57 70.84 79.082 69.24 81.018 68.088C82.954 66.936 85.194 66.36 87.738 66.36C90.346 66.36 92.618 66.944 94.554 68.112C96.49 69.28 97.994 70.896 99.066 72.96C100.138 75.008 100.674 77.368 100.674 80.04C100.674 82.728 100.13 85.104 99.042 87.168C97.97 89.216 96.466 90.824 94.53 91.992C92.594 93.144 90.33 93.72 87.738 93.72ZM87.738 88.296C90.042 88.296 91.754 87.528 92.874 85.992C93.994 84.456 94.554 82.472 94.554 80.04C94.554 77.528 93.986 75.528 92.85 74.04C91.714 72.536 90.01 71.784 87.738 71.784C86.186 71.784 84.906 72.136 83.898 72.84C82.906 73.528 82.17 74.496 81.69 75.744C81.21 76.976 80.97 78.408 80.97 80.04C80.97 82.552 81.538 84.56 82.674 86.064C83.826 87.552 85.514 88.296 87.738 88.296ZM104.474 93V67.08H116.258C117.106 67.08 117.898 67.128 118.634 67.224C119.37 67.32 120.002 67.44 120.53 67.584C121.778 67.952 122.882 68.672 123.842 69.744C124.802 70.8 125.282 72.264 125.282 74.136C125.282 75.24 125.106 76.152 124.754 76.872C124.402 77.576 123.938 78.168 123.362 78.648C123.09 78.872 122.81 79.064 122.522 79.224C122.234 79.384 121.946 79.512 121.658 79.608C122.282 79.704 122.874 79.888 123.434 80.16C124.314 80.592 125.05 81.232 125.642 82.08C126.25 82.928 126.554 84.12 126.554 85.656C126.554 87.4 126.13 88.872 125.282 90.072C124.45 91.256 123.226 92.08 121.61 92.544C121.018 92.704 120.338 92.824 119.57 92.904C118.802 92.968 118.018 93 117.218 93H104.474ZM110.33 88.536H116.81C117.146 88.536 117.514 88.504 117.914 88.44C118.314 88.376 118.674 88.288 118.994 88.176C119.57 87.968 119.986 87.6 120.242 87.072C120.514 86.544 120.65 85.992 120.65 85.416C120.65 84.632 120.45 84.008 120.05 83.544C119.666 83.064 119.202 82.744 118.658 82.584C118.338 82.456 117.986 82.384 117.602 82.368C117.234 82.336 116.93 82.32 116.69 82.32H110.33V88.536ZM110.33 77.784H115.13C115.626 77.784 116.106 77.76 116.57 77.712C117.05 77.648 117.45 77.544 117.77 77.4C118.298 77.192 118.682 76.84 118.922 76.344C119.178 75.848 119.306 75.296 119.306 74.688C119.306 74.048 119.162 73.472 118.874 72.96C118.602 72.432 118.162 72.08 117.554 71.904C117.154 71.744 116.666 71.656 116.09 71.64C115.53 71.624 115.17 71.616 115.01 71.616H110.33V77.784ZM141.342 93.72C138.75 93.72 136.486 93.136 134.55 91.968C132.614 90.8 131.11 89.192 130.038 87.144C128.982 85.08 128.454 82.712 128.454 80.04C128.454 77.32 128.998 74.936 130.086 72.888C131.174 70.84 132.686 69.24 134.622 68.088C136.558 66.936 138.798 66.36 141.342 66.36C143.95 66.36 146.222 66.944 148.158 68.112C150.094 69.28 151.598 70.896 152.67 72.96C153.742 75.008 154.278 77.368 154.278 80.04C154.278 82.728 153.734 85.104 152.646 87.168C151.574 89.216 150.07 90.824 148.134 91.992C146.198 93.144 143.934 93.72 141.342 93.72ZM141.342 88.296C143.646 88.296 145.358 87.528 146.478 85.992C147.598 84.456 148.158 82.472 148.158 80.04C148.158 77.528 147.59 75.528 146.454 74.04C145.318 72.536 143.614 71.784 141.342 71.784C139.79 71.784 138.51 72.136 137.502 72.84C136.51 73.528 135.774 74.496 135.294 75.744C134.814 76.976 134.574 78.408 134.574 80.04C134.574 82.552 135.142 84.56 136.278 86.064C137.43 87.552 139.118 88.296 141.342 88.296ZM170.582 93.72C168.054 93.72 165.934 93.12 164.222 91.92C162.51 90.72 161.222 89.088 160.358 87.024C159.494 84.944 159.062 82.616 159.062 80.04C159.062 77.432 159.494 75.096 160.358 73.032C161.222 70.968 162.486 69.344 164.15 68.16C165.83 66.96 167.902 66.36 170.366 66.36C172.814 66.36 174.934 66.96 176.726 68.16C178.534 69.344 179.934 70.968 180.926 73.032C181.918 75.08 182.414 77.416 182.414 80.04C182.414 82.632 181.926 84.96 180.95 87.024C179.974 89.088 178.598 90.72 176.822 91.92C175.046 93.12 172.966 93.72 170.582 93.72ZM158.078 104.52V67.08H163.19V85.272H163.91V104.52H158.078ZM169.694 88.536C171.198 88.536 172.438 88.16 173.414 87.408C174.39 86.656 175.11 85.64 175.574 84.36C176.054 83.064 176.294 81.624 176.294 80.04C176.294 78.472 176.054 77.048 175.574 75.768C175.094 74.472 174.35 73.448 173.342 72.696C172.334 71.928 171.054 71.544 169.502 71.544C168.03 71.544 166.83 71.904 165.902 72.624C164.974 73.328 164.286 74.32 163.838 75.6C163.406 76.864 163.19 78.344 163.19 80.04C163.19 81.72 163.406 83.2 163.838 84.48C164.286 85.76 164.982 86.76 165.926 87.48C166.886 88.184 168.142 88.536 169.694 88.536ZM208.728 67.08V93H203.184V76.08L190.848 93H186.216V67.08H191.76V83.568L204.144 67.08H208.728ZM214.987 93V87.072H220.915V93H214.987ZM228.126 93V87.072H234.054V93H228.126ZM241.264 93V87.072H247.192V93H241.264Z" fill="#1E1E1E"/>
<path d="M0 116C8.82997 116 16 123.17 16 132H8C8 127.573 4.42651 124 0 124V116Z" fill="#2E2EC8"/>
<path d="M20 132C20 123.17 27.17 116 36 116L36 124C31.5735 124 28 127.573 28 132L20 132Z" fill="#F591CE"/>
<path d="M56 116C56 124.83 48.83 132 40 132L40 124C44.4265 124 48 120.427 48 116L56 116Z" fill="#00D5AE"/>
<path d="M60 116C68.83 116 76 123.17 76 132H68C68 127.573 64.4265 124 60 124V116Z" fill="#F5BD01"/>
</svg>
