<svg width="200" height="72" viewBox="0 0 200 72" fill="none" xmlns="http://www.w3.org/2000/svg">
<g clip-path="url(#clip0_2316_818)">
<path d="M0 24.8188C25.7028 24.8188 46.506 45.6221 46.506 71.3249H23.2129C23.2129 58.4735 12.7711 48.112 0 48.112V24.8188Z" fill="#F591CE"/>
<path opacity="0.8" d="M0 48.0319C25.7028 48.0319 46.506 27.2287 46.506 1.52588H23.2129C23.2129 14.3773 12.7711 24.7387 0 24.7387V48.0319Z" fill="#2E2EC8"/>
<path d="M79.1969 17.1888L74.9399 21.5261V28.3534H69.96V1.60645H74.9399V15.3414L88.1929 1.60645H93.8154L82.5704 13.5743L94.5383 28.4338H88.6748L79.1969 17.1888Z" fill="#191B24"/>
<path d="M108.916 7.71094V12.2893C108.514 12.2089 108.113 12.2089 107.791 12.2089C105.944 12.2089 104.498 12.7712 103.454 13.8154C102.41 14.9399 101.848 16.466 101.848 18.474V28.4338H97.0283V7.9519H101.607V10.9238C102.972 8.83544 105.382 7.71094 108.916 7.71094Z" fill="#191B24"/>
<path d="M132.852 7.95166L123.293 30.04C122.41 32.289 121.285 33.8151 120 34.6987C118.715 35.5822 117.189 36.0641 115.341 36.0641C114.297 36.0641 113.333 35.9035 112.289 35.5822C111.325 35.2609 110.442 34.779 109.799 34.2167L111.727 30.6826C112.209 31.0842 112.691 31.4858 113.333 31.7268C113.976 31.9677 114.619 32.1284 115.261 32.1284C116.064 32.1284 116.787 31.8874 117.35 31.4858C117.912 31.0842 118.394 30.3613 118.876 29.3171L119.197 28.5139L110.362 7.95166H115.341L121.767 23.1324L128.273 7.95166H132.852Z" fill="#191B24"/>
<path d="M137.028 28.032C135.422 27.6304 134.217 27.0681 133.253 26.3452L135.1 22.7308C135.984 23.3733 137.108 23.8553 138.393 24.1766C139.679 24.5782 140.964 24.7388 142.169 24.7388C145.06 24.7388 146.426 24.0159 146.426 22.4898C146.426 21.7669 146.024 21.285 145.301 20.9637C144.578 20.6424 143.373 20.4015 141.767 20.1605C140.08 19.9195 138.715 19.5982 137.671 19.277C136.626 18.9557 135.663 18.3934 134.94 17.5099C134.136 16.7067 133.735 15.5019 133.735 14.0561C133.735 12.1284 134.538 10.5219 136.145 9.39744C137.751 8.27294 139.92 7.63037 142.731 7.63037C144.096 7.63037 145.542 7.79101 146.908 8.1123C148.273 8.43358 149.478 8.83519 150.361 9.39744L148.514 13.0119C146.747 11.9677 144.819 11.4858 142.651 11.4858C141.285 11.4858 140.161 11.7268 139.438 12.1284C138.715 12.53 138.313 13.0922 138.313 13.8151C138.313 14.6183 138.715 15.1003 139.518 15.4215C140.321 15.7428 141.526 16.0641 143.132 16.3051C144.739 16.546 146.104 16.8673 147.149 17.1886C148.193 17.5099 149.076 18.0721 149.879 18.8754C150.602 19.6786 151.004 20.8031 151.004 22.2488C151.004 24.1766 150.201 25.7027 148.514 26.8272C146.827 27.9517 144.578 28.5139 141.767 28.5139C140.241 28.6745 138.634 28.5139 137.028 28.032Z" fill="#191B24"/>
<path d="M167.63 27.309C167.068 27.791 166.345 28.1122 165.542 28.3532C164.739 28.5942 163.855 28.6745 162.972 28.6745C160.723 28.6745 158.956 28.1122 157.751 26.9074C156.546 25.7026 155.904 24.0159 155.904 21.7669V11.9677H152.61V8.11225H155.984V3.45361H160.803V8.11225H166.265V11.9677H160.803V21.6865C160.803 22.6504 161.044 23.4536 161.526 23.9355C162.008 24.4978 162.731 24.7388 163.614 24.7388C164.659 24.7388 165.542 24.4175 166.265 23.8552L167.63 27.309Z" fill="#191B24"/>
<path d="M186.345 9.87967C187.952 11.3255 188.755 13.4941 188.755 16.3857V28.3536H184.257V25.8636C183.695 26.7471 182.811 27.47 181.767 27.952C180.642 28.4339 179.357 28.6749 177.831 28.6749C176.305 28.6749 174.94 28.4339 173.815 27.8716C172.691 27.3094 171.807 26.5865 171.165 25.703C170.522 24.7391 170.201 23.6949 170.201 22.5704C170.201 20.723 170.924 19.2773 172.289 18.1528C173.655 17.0283 175.823 16.466 178.715 16.466H184.016V16.1447C184.016 14.6989 183.614 13.6548 182.731 12.8516C181.847 12.0483 180.642 11.7271 178.956 11.7271C177.831 11.7271 176.707 11.8877 175.582 12.2893C174.458 12.6106 173.494 13.1728 172.771 13.8154L170.924 10.3616C171.968 9.55838 173.253 8.91581 174.779 8.51421C176.305 8.1126 177.912 7.87164 179.598 7.87164C182.41 7.71099 184.739 8.43389 186.345 9.87967ZM182.008 24.4178C182.972 23.8556 183.614 23.0524 184.016 22.0885V19.6789H179.036C176.305 19.6789 174.859 20.5624 174.859 22.4098C174.859 23.2933 175.181 23.9359 175.904 24.4981C176.626 24.9801 177.59 25.3014 178.795 25.3014C180 25.221 181.044 24.9801 182.008 24.4178Z" fill="#191B24"/>
<path d="M194.859 0H199.679V28.4337H194.859V0Z" fill="#191B24"/>
<path d="M92.4499 59.6785C93.3335 60.803 93.7351 62.2488 93.7351 63.9356C93.7351 66.2649 92.8515 68.0319 91.0845 69.3171C89.3174 70.6022 86.6668 71.2448 83.2933 71.2448H69.96V44.4175H82.5704C85.7029 44.4175 88.1929 45.0601 89.8796 46.2649C91.5664 47.4697 92.4499 49.2368 92.4499 51.4054C92.4499 52.7709 92.1286 53.8954 91.5664 54.9396C90.9238 55.9837 90.1206 56.787 89.0764 57.3492C90.4419 57.7508 91.6467 58.554 92.4499 59.6785ZM74.9399 48.2729V55.6625H82.0082C83.7752 55.6625 85.0604 55.3412 86.0242 54.6986C86.9881 54.056 87.3897 53.1725 87.3897 51.9677C87.3897 50.7629 86.9078 49.799 86.0242 49.1564C85.0604 48.5139 83.7752 48.1926 82.0082 48.1926H74.9399V48.2729ZM88.7551 63.4536C88.7551 60.8833 86.8274 59.5982 82.972 59.5982H74.9399V67.3091H82.972C86.8274 67.3091 88.7551 66.0239 88.7551 63.4536Z" fill="#191B24"/>
<path d="M113.414 52.6907C115.02 54.1365 115.823 56.3052 115.823 59.1967V71.1646H111.325V68.6746C110.763 69.5582 109.879 70.2811 108.835 70.763C107.711 71.2449 106.426 71.4859 104.9 71.4859C103.373 71.4859 102.008 71.2449 100.884 70.6827C99.759 70.1204 98.8755 69.3975 98.2329 68.514C97.5903 67.5501 97.269 66.506 97.269 65.3815C97.269 63.5341 97.9919 62.0883 99.3574 60.9638C100.723 59.8393 102.892 59.2771 105.783 59.2771H111.084V58.9558C111.084 57.51 110.683 56.4658 109.799 55.6626C108.916 54.8594 107.711 54.5381 106.024 54.5381C104.9 54.5381 103.775 54.6987 102.651 55.1003C101.526 55.4216 100.562 55.9839 99.8393 56.6264L97.9919 53.1726C99.0361 52.3694 100.321 51.7269 101.847 51.3252C103.373 50.9236 104.98 50.6827 106.667 50.6827C109.478 50.522 111.807 51.2449 113.414 52.6907ZM108.996 67.1485C109.96 66.5863 110.602 65.7831 111.004 64.8192V62.4096H106.024C103.293 62.4096 101.847 63.2931 101.847 65.1405C101.847 66.024 102.169 66.6666 102.892 67.2289C103.614 67.7108 104.578 68.0321 105.783 68.0321C106.988 68.0321 108.112 67.7108 108.996 67.1485Z" fill="#191B24"/>
<path d="M139.759 52.771C141.285 54.2971 142.089 56.5461 142.089 59.518V71.2449H137.269V60.0802C137.269 58.3131 136.868 56.9477 135.984 56.0641C135.181 55.1806 133.976 54.6987 132.37 54.6987C130.603 54.6987 129.237 55.2609 128.193 56.3051C127.149 57.3493 126.667 58.8754 126.667 60.8834V71.2449H121.848V50.7629H126.426V53.4135C127.229 52.4497 128.193 51.7268 129.398 51.2449C130.603 50.7629 131.968 50.522 133.494 50.522C136.145 50.522 138.153 51.2449 139.759 52.771Z" fill="#191B24"/>
<path d="M156.546 62.4094L153.012 65.7829V71.1644H148.193V42.811H153.012V59.9998L162.972 50.7628H168.755L160.241 59.3572L169.478 71.2448H163.615L156.546 62.4094Z" fill="#191B24"/>
</g>
<defs>
<clipPath id="clip0_2316_818">
<rect width="200" height="71.4859" fill="white"/>
</clipPath>
</defs>
</svg>
