<svg width="141" height="30" viewBox="0 0 141 30" fill="none" xmlns="http://www.w3.org/2000/svg">
<path d="M0.807129 9.71289C11.4964 9.71289 20.1762 18.3927 20.1762 29.082H10.4917C10.4917 23.7234 6.16573 19.3974 0.807129 19.3974V9.71289Z" fill="#F591CE"/>
<path opacity="0.8" d="M0.807129 19.3691C11.4964 19.3691 20.1762 10.6893 20.1762 0H10.4917C10.4917 5.3586 6.16573 9.68455 0.807129 9.68455V19.3691Z" fill="#2E2EC8"/>
<path d="M34.5022 14.1365L32.5207 16.1739V19.3834H30.1763V6.82422H32.5207V13.2713L38.7165 6.82422H41.34L36.0651 12.434L41.6749 19.3834H38.9398L34.5022 14.1365Z" fill="black"/>
<path d="M48.4011 9.69824V11.8194C48.2057 11.7914 48.0382 11.7635 47.8708 11.7635C47.0056 11.7635 46.3079 12.0147 45.8334 12.5171C45.331 13.0195 45.1077 13.7451 45.1077 14.7219V19.3549H42.875V9.80988H44.9961V11.2053C45.638 10.2006 46.7823 9.69824 48.4011 9.69824Z" fill="black"/>
<path d="M59.6207 9.81014L55.1273 20.1645C54.7086 21.1972 54.2063 21.9507 53.5923 22.3694C53.0062 22.788 52.2805 23.0113 51.4153 23.0113C50.9409 23.0113 50.4664 22.9275 49.9919 22.788C49.5175 22.6205 49.1547 22.4252 48.8477 22.1461L49.7408 20.4994C49.964 20.6948 50.2152 20.8622 50.4943 20.9739C50.7734 21.0855 51.0804 21.1413 51.3874 21.1413C51.7781 21.1413 52.1131 21.0297 52.3642 20.8343C52.6154 20.639 52.8666 20.2762 53.062 19.8017L53.2294 19.411L49.043 9.78223H51.3874L54.4574 16.8991L57.4996 9.81014H59.6207Z" fill="black"/>
<path d="M61.5743 19.188C60.8207 18.9926 60.2346 18.7414 59.7881 18.4065L60.6533 16.7041C61.0719 16.9832 61.6022 17.2343 62.2162 17.4018C62.8302 17.5693 63.4163 17.653 64.0024 17.653C65.3421 17.653 66.0119 17.2902 66.0119 16.5924C66.0119 16.2575 65.8444 16.0342 65.5095 15.8947C65.1746 15.7551 64.6164 15.6435 63.8629 15.504C63.0814 15.3923 62.4395 15.2528 61.9371 15.0853C61.4347 14.9179 61.0161 14.6667 60.6533 14.2759C60.2905 13.8852 60.0951 13.3549 60.0951 12.6572C60.0951 11.7362 60.4858 11.0105 61.2394 10.4803C61.9929 9.94999 63.0256 9.6709 64.3094 9.6709C64.9792 9.6709 65.6211 9.75463 66.291 9.89417C66.9608 10.0337 67.4911 10.257 67.9097 10.5082L67.0445 12.2107C66.2352 11.7362 65.3141 11.485 64.3094 11.485C63.6396 11.485 63.1651 11.5966 62.8023 11.792C62.4674 11.9874 62.2999 12.2386 62.2999 12.5735C62.2999 12.9363 62.4953 13.1875 62.8581 13.327C63.2209 13.4666 63.7791 13.6061 64.5606 13.7457C65.3141 13.8573 65.9561 13.9969 66.4305 14.1643C66.9329 14.3318 67.3515 14.5829 67.6864 14.9458C68.0493 15.3086 68.2167 15.8389 68.2167 16.5366C68.2167 17.4297 67.826 18.1553 67.0445 18.6856C66.2631 19.2159 65.2025 19.495 63.8629 19.495C63.0814 19.495 62.3278 19.4113 61.5743 19.188Z" fill="black"/>
<path d="M75.8916 18.8532C75.6404 19.0765 75.3055 19.2439 74.9426 19.3277C74.5798 19.4393 74.1612 19.4951 73.7425 19.4951C72.682 19.4951 71.8726 19.216 71.3144 18.6578C70.7283 18.0997 70.4492 17.3182 70.4492 16.2576V11.6526H68.8584V9.86638H70.4492V7.68945H72.682V9.86638H75.2496V11.6526H72.682V16.2018C72.682 16.6763 72.7936 17.0112 73.0169 17.2624C73.2402 17.5136 73.5751 17.6252 73.9937 17.6252C74.4961 17.6252 74.9147 17.4856 75.2496 17.2345L75.8916 18.8532Z" fill="black"/>
<path d="M84.6554 10.703C85.4089 11.3729 85.7718 12.4055 85.7718 13.7731V19.3829H83.6506V18.2107C83.3716 18.6293 82.9808 18.9363 82.4785 19.1596C81.9761 19.3829 81.3621 19.4945 80.6364 19.4945C79.9108 19.4945 79.2968 19.3829 78.7386 19.1317C78.2083 18.8805 77.7897 18.5456 77.4827 18.099C77.1757 17.6525 77.0361 17.178 77.0361 16.6198C77.0361 15.7546 77.3431 15.0569 77.985 14.5545C78.627 14.0243 79.6317 13.7731 80.9993 13.7731H83.4832V13.6335C83.4832 12.9637 83.2878 12.4613 82.8692 12.0985C82.4785 11.7357 81.8645 11.5682 81.083 11.5682C80.5527 11.5682 80.0224 11.652 79.4922 11.8194C78.9619 11.9869 78.5432 12.2102 78.1804 12.5172L77.3152 10.8984C77.8176 10.5077 78.4316 10.2286 79.1293 10.0332C79.8271 9.83786 80.5806 9.72622 81.3621 9.72622C82.8134 9.69831 83.9018 10.0332 84.6554 10.703ZM82.5901 17.485C83.0366 17.2338 83.3436 16.871 83.5111 16.3687V15.2523H81.1946C79.9108 15.2523 79.2689 15.6709 79.2689 16.5361C79.2689 16.9548 79.4363 17.2618 79.7433 17.5129C80.0782 17.7641 80.5248 17.8758 81.083 17.8758C81.6691 17.8758 82.1715 17.7362 82.5901 17.485Z" fill="black"/>
<path d="M88.6465 6.07031H90.8792V19.3831H88.6465V6.07031Z" fill="black"/>
<path d="M104.582 13.9969C105.001 14.5272 105.196 15.197 105.196 15.9785C105.196 17.067 104.778 17.9042 103.941 18.4903C103.103 19.0764 101.875 19.3834 100.284 19.3834H94.0327V6.82422H99.9216C101.401 6.82422 102.545 7.10331 103.354 7.68941C104.164 8.27551 104.555 9.05697 104.555 10.0896C104.555 10.7036 104.415 11.2618 104.136 11.7363C103.857 12.2107 103.466 12.5735 102.964 12.8526C103.634 13.0759 104.192 13.4666 104.582 13.9969ZM96.3771 8.63833V12.0991H99.6704C100.48 12.0991 101.122 11.9595 101.54 11.6525C101.987 11.3734 102.182 10.9269 102.182 10.3687C102.182 9.78261 101.959 9.36397 101.54 9.05697C101.094 8.77788 100.48 8.61042 99.6704 8.61042H96.3771V8.63833ZM102.852 15.7273C102.852 14.5272 101.959 13.9132 100.145 13.9132H96.3771V17.5414H100.145C101.959 17.5414 102.852 16.9553 102.852 15.7273Z" fill="black"/>
<path d="M114.379 10.703C115.133 11.3729 115.495 12.4055 115.495 13.7731V19.3829H113.374V18.2107C113.095 18.6293 112.704 18.9363 112.202 19.1596C111.7 19.3829 111.086 19.4945 110.36 19.4945C109.634 19.4945 109.02 19.3829 108.49 19.1317C107.96 18.8805 107.541 18.5456 107.234 18.099C106.927 17.6525 106.788 17.178 106.788 16.6198C106.788 15.7546 107.095 15.0569 107.737 14.5545C108.378 14.0243 109.383 13.7731 110.751 13.7731H113.235V13.6335C113.235 12.9637 113.039 12.4613 112.621 12.0985C112.23 11.7357 111.616 11.5682 110.834 11.5682C110.304 11.5682 109.774 11.652 109.244 11.8194C108.713 11.9869 108.295 12.2102 107.932 12.5172L107.039 10.8984C107.541 10.5077 108.155 10.2286 108.853 10.0332C109.551 9.83786 110.304 9.72622 111.086 9.72622C112.537 9.69831 113.625 10.0332 114.379 10.703ZM112.342 17.485C112.788 17.2338 113.095 16.871 113.263 16.3687V15.2523H110.946C109.662 15.2523 109.02 15.6709 109.02 16.5361C109.02 16.9548 109.188 17.2618 109.495 17.5129C109.83 17.7641 110.276 17.8758 110.834 17.8758C111.393 17.8758 111.895 17.7362 112.342 17.485Z" fill="black"/>
<path d="M126.715 10.7588C127.441 11.4565 127.803 12.5171 127.803 13.8846V19.3828H125.571V14.1637C125.571 13.3265 125.375 12.6845 124.985 12.2659C124.594 11.8473 124.036 11.624 123.31 11.624C122.473 11.624 121.831 11.8752 121.356 12.3775C120.882 12.8799 120.631 13.5776 120.631 14.5266V19.3828H118.398V9.80988H120.519V11.0379C120.882 10.5913 121.356 10.2564 121.915 10.0332C122.473 9.80988 123.115 9.69824 123.812 9.69824C125.012 9.69824 125.989 10.0332 126.715 10.7588Z" fill="black"/>
<path d="M134.557 15.2804L132.883 16.8712V19.411H130.65V6.07031H132.883V14.1082L137.544 9.81017H140.223L136.232 13.8291L140.614 19.3831H137.878L134.557 15.2804Z" fill="black"/>
</svg>
