<svg width="13" height="11" viewBox="0 0 13 11" fill="none" xmlns="http://www.w3.org/2000/svg">
<path d="M11.5068 3.54105L8.66787 0.702134C8.4451 0.479469 8.143 0.354418 7.82803 0.354492C7.51306 0.354566 7.21102 0.479759 6.98835 0.70253C6.76569 0.925301 6.64063 1.2274 6.64071 1.54237C6.64078 1.85734 6.76598 2.15939 6.98875 2.38205L8.91962 4.31293H1.9585C1.64355 4.31293 1.34151 4.43804 1.11881 4.66074C0.896107 4.88344 0.770996 5.18548 0.770996 5.50043C0.770996 5.81537 0.896107 6.11742 1.11881 6.34012C1.34151 6.56282 1.64355 6.68793 1.9585 6.68793H8.91962L6.98875 8.6188C6.76598 8.84147 6.64078 9.14351 6.64071 9.45848C6.64063 9.77345 6.76569 10.0756 6.98835 10.2983C7.21102 10.5211 7.51306 10.6463 7.82803 10.6464C8.143 10.6464 8.4451 10.5214 8.66787 10.2987L11.5068 7.4598C12.0255 6.93965 12.3168 6.23502 12.3168 5.50043C12.3168 4.76583 12.0255 4.0612 11.5068 3.54105Z" fill="#2E2EC8"/>
</svg>
