<svg width="13" height="11" viewBox="0 0 13 11" fill="none" xmlns="http://www.w3.org/2000/svg">
<path d="M11.5063 3.54105L8.66738 0.702134C8.44461 0.479469 8.14251 0.354418 7.82754 0.354492C7.51257 0.354566 7.21053 0.479759 6.98786 0.70253C6.7652 0.925301 6.64015 1.2274 6.64022 1.54237C6.64029 1.85734 6.76549 2.15939 6.98826 2.38205L8.91913 4.31293H1.95801C1.64306 4.31293 1.34102 4.43804 1.11832 4.66074C0.895619 4.88344 0.770508 5.18548 0.770508 5.50043C0.770508 5.81537 0.895619 6.11742 1.11832 6.34012C1.34102 6.56282 1.64306 6.68793 1.95801 6.68793H8.91913L6.98826 8.6188C6.76549 8.84147 6.64029 9.14351 6.64022 9.45848C6.64015 9.77345 6.7652 10.0756 6.98786 10.2983C7.21053 10.5211 7.51257 10.6463 7.82754 10.6464C8.14251 10.6464 8.44461 10.5214 8.66738 10.2987L11.5063 7.4598C12.025 6.93965 12.3163 6.23502 12.3163 5.50043C12.3163 4.76583 12.025 4.0612 11.5063 3.54105Z" fill="white"/>
</svg>
