<svg width="422" height="492" viewBox="0 0 422 492" fill="none" xmlns="http://www.w3.org/2000/svg">
<g clip-path="url(#clip0_2314_754)">
<g filter="url(#filter0_bii_2314_754)">
<rect width="264.327" height="419.347" rx="19.3145" transform="matrix(0.285354 -0.958422 0.824126 0.566406 0.217773 253.653)" fill="#2E2EC8"/>
</g>
<g filter="url(#filter1_i_2314_754)">
<rect width="55.6691" height="39.8217" rx="9.01345" transform="matrix(0.824126 0.566406 -0.285354 0.958422 90.4399 112.874)" fill="url(#paint0_linear_2314_754)"/>
</g>
<path d="M86.4542 126.047L102.055 136.77C104.093 133.92 109.035 128.56 112.497 129.91C113.543 131.214 115.806 134.874 116.485 139.084M82.8116 138.282L98.4125 149.004C96.6086 155.063 99.9386 162.685 101.829 165.739C106.173 166.947 111.297 161.914 113.316 159.247L128.743 169.849M131.518 160.528L116.091 149.925C115.847 147.925 115.916 143.746 118.144 143.031" stroke="url(#paint1_linear_2314_754)" stroke-width="0.772581"/>
<path d="M145.806 172.155C146.016 173.707 145.94 177.126 143.951 178.387M150.156 172.448C150.443 174.873 150.206 180.41 146.968 183.158M154.117 172.355C154.462 175.602 154.045 183.166 149.624 187.446M158.184 172.922C158.7 176.834 158.304 186.07 152.59 191.713" stroke="white" stroke-width="2.8328" stroke-linecap="round" stroke-linejoin="round"/>
<path d="M53.9556 250.58C53.2436 250.09 52.6824 249.488 52.2722 248.772C51.8652 248.058 51.6181 247.281 51.5308 246.44C51.4468 245.602 51.5326 244.753 51.7883 243.895C52.044 243.036 52.4067 242.378 52.8765 241.92C53.3496 241.465 53.8969 241.234 54.5185 241.227C55.1433 241.222 55.8118 241.465 56.5238 241.954C57.3413 242.516 57.9568 243.223 58.3702 244.075C58.7869 244.929 58.9892 245.837 58.9769 246.799L57.492 246.305C57.5096 245.712 57.403 245.17 57.172 244.678C56.9421 244.183 56.58 243.766 56.0855 243.426C55.6339 243.116 55.2216 242.973 54.8487 242.999C54.4791 243.026 54.1551 243.201 53.8768 243.522C53.5985 243.843 53.3737 244.292 53.2025 244.867C53.0313 245.442 52.9581 245.994 52.9831 246.524C53.008 247.054 53.1357 247.538 53.366 247.979C53.5997 248.421 53.9423 248.797 54.3939 249.108C54.8884 249.447 55.3339 249.585 55.7304 249.52C56.1269 249.456 56.4652 249.22 56.7455 248.812L57.9702 250.18C57.5031 250.829 56.9207 251.197 56.2232 251.286C55.529 251.377 54.7732 251.142 53.9556 250.58ZM58.3296 253.378L60.1787 247.167L61.3655 247.983L60.9135 249.501L60.8431 249.217C60.9763 249.05 61.1268 248.918 61.2947 248.821C61.4625 248.724 61.6477 248.676 61.85 248.676C62.006 248.673 62.1672 248.698 62.3337 248.752C62.5013 248.803 62.6676 248.878 62.8325 248.978C62.9986 249.073 63.159 249.188 63.3137 249.322L62.8788 250.783C62.7465 250.627 62.5785 250.491 62.375 250.374C62.176 250.256 61.9842 250.186 61.7997 250.166C61.6164 250.141 61.4492 250.163 61.2982 250.23C61.1483 250.293 61.0168 250.401 60.9037 250.554C60.7917 250.704 60.7004 250.897 60.6296 251.135L59.6845 254.309L58.3296 253.378ZM62.0726 259.276L64.0804 256.693L63.8126 257.673L63.4678 249.428L64.8622 250.386L65.0242 256.164L64.7077 255.947L67.6609 252.31L69.0059 253.234L63.3187 260.132L62.0726 259.276ZM69.8875 261.529C69.215 261.067 68.7236 260.517 68.4132 259.879C68.1073 259.239 68.0063 258.565 68.1102 257.856L69.5567 258.559C69.526 258.889 69.5817 259.202 69.7239 259.498C69.8693 259.797 70.0903 260.048 70.387 260.252C70.6309 260.419 70.8348 260.495 70.9986 260.478C71.1636 260.458 71.2752 260.349 71.3334 260.154C71.3699 260.031 71.3727 259.915 71.3416 259.806C71.3117 259.693 71.2153 259.537 71.0524 259.337C70.8927 259.14 70.6378 258.849 70.2875 258.465C69.8911 258.036 69.5867 257.651 69.3742 257.311C69.1618 256.971 69.0309 256.65 68.9818 256.349C68.9337 256.043 68.9571 255.731 69.0518 255.413C69.1705 255.015 69.3606 254.73 69.6221 254.558C69.8847 254.383 70.1976 254.326 70.5609 254.386C70.9286 254.445 71.3283 254.623 71.7602 254.919C72.1788 255.207 72.5274 255.537 72.806 255.908C73.0845 256.28 73.2816 256.672 73.3972 257.084C73.5161 257.498 73.5427 257.909 73.477 258.316L72.0167 257.659C72.0622 257.413 72.0307 257.172 71.9223 256.936C71.8139 256.7 71.6362 256.483 71.3892 256.285C71.1477 256.096 70.9368 255.998 70.7567 255.989C70.5798 255.983 70.4645 256.07 70.4109 256.25C70.3789 256.358 70.3834 256.469 70.4243 256.585C70.4686 256.703 70.5798 256.87 70.7581 257.085C70.9397 257.302 71.2198 257.614 71.5987 258.023C71.9676 258.424 72.2495 258.791 72.4444 259.123C72.6437 259.454 72.7651 259.773 72.8087 260.08C72.8535 260.384 72.8279 260.696 72.732 261.018C72.5425 261.655 72.1958 262.019 71.6918 262.111C71.1878 262.204 70.5863 262.01 69.8875 261.529ZM76.4647 265.842C76.0715 265.669 75.6986 265.454 75.346 265.198C74.9956 264.948 74.7002 264.659 74.46 264.332C74.2242 264.004 74.0788 263.639 74.0239 263.236C73.9765 262.862 73.9929 262.527 74.0731 262.231C74.1544 261.931 74.2504 261.595 74.3611 261.223L75.9397 255.921L77.2846 256.846L75.7335 262.056C75.6616 262.297 75.5981 262.517 75.5432 262.715C75.4927 262.911 75.4817 263.088 75.5101 263.246C75.5637 263.546 75.7179 263.795 75.9726 263.994C76.2273 264.192 76.5203 264.375 76.8516 264.542L76.4647 265.842ZM74.1567 258.229L74.5162 257.021L78.3138 259.631L77.9542 260.839L74.1567 258.229ZM79.0868 267.852C78.7044 267.589 78.4048 267.282 78.188 266.929C77.9757 266.576 77.8425 266.209 77.7885 265.83C77.739 265.45 77.7655 265.087 77.8683 264.742C77.9539 264.455 78.07 264.218 78.2166 264.033C78.3631 263.847 78.5473 263.722 78.7691 263.657C78.9953 263.591 79.2701 263.595 79.5934 263.67C79.8163 263.721 80.0742 263.808 80.3673 263.931C80.6603 264.054 80.9884 264.206 81.3517 264.386C81.7161 264.563 82.1168 264.757 82.5538 264.97L81.9768 264.947C82.0864 264.579 82.091 264.257 81.9907 263.98C81.8905 263.704 81.6623 263.443 81.3063 263.198C81.1085 263.062 80.8859 262.976 80.6385 262.94C80.3912 262.904 80.1824 262.998 80.0122 263.223L78.9294 261.939C79.2175 261.518 79.5957 261.274 80.0641 261.208C80.5325 261.142 81.0881 261.33 81.7309 261.772C82.2023 262.096 82.5958 262.468 82.9115 262.888C83.2272 263.308 83.4174 263.79 83.482 264.333C83.519 264.636 83.5132 264.909 83.4644 265.152C83.4157 265.396 83.3492 265.66 83.2647 265.943L82.1347 269.739L80.9578 268.93L81.3379 267.653L81.4273 268.033C81.0425 268.272 80.6704 268.381 80.3112 268.361C79.9565 268.339 79.5483 268.169 79.0868 267.852ZM79.74 266.818C79.9872 266.988 80.2098 267.081 80.4076 267.097C80.6098 267.111 80.7798 267.087 80.9175 267.025C81.0585 266.965 81.1602 266.903 81.2227 266.84C81.3422 266.719 81.4399 266.55 81.516 266.335C81.5966 266.118 81.6591 265.934 81.7036 265.785L82.0649 266.172C81.6432 265.974 81.3008 265.817 81.0376 265.701C80.7755 265.581 80.5624 265.49 80.3982 265.428C80.234 265.366 80.0868 265.32 79.9565 265.291C79.8064 265.262 79.6793 265.255 79.5752 265.271C79.4755 265.286 79.3934 265.322 79.3287 265.379C79.2673 265.438 79.2212 265.52 79.1904 265.623C79.1482 265.765 79.1413 265.908 79.1699 266.052C79.2028 266.195 79.2673 266.332 79.3634 266.463C79.4595 266.593 79.5851 266.712 79.74 266.818ZM83.5193 270.69L86.0361 262.237L87.3811 263.162L84.8643 271.615L83.5193 270.69ZM88.3265 273.994L90.792 265.714L93.5166 267.586C93.8858 267.84 94.1897 268.16 94.4283 268.545C94.6713 268.929 94.8301 269.336 94.9046 269.766C94.9824 270.198 94.9626 270.612 94.845 271.007C94.7126 271.451 94.4878 271.78 94.1707 271.991C93.8547 272.199 93.5009 272.254 93.1092 272.155L93.1716 271.866C93.5907 272.352 93.8793 272.883 94.0377 273.458C94.2004 274.032 94.1973 274.603 94.0284 275.17C93.8869 275.645 93.6747 275.991 93.3918 276.208C93.1133 276.423 92.7885 276.514 92.4172 276.48C92.0471 276.443 91.6609 276.286 91.2588 276.01L88.3265 273.994ZM89.0936 273.739L91.2643 275.231C91.5808 275.448 91.8831 275.58 92.1713 275.625C92.4628 275.673 92.7165 275.628 92.9323 275.49C93.1514 275.355 93.3112 275.118 93.4116 274.781C93.5109 274.447 93.533 274.1 93.4777 273.739C93.4269 273.376 93.3111 273.038 93.1305 272.724C92.951 272.407 92.7195 272.151 92.436 271.956L90.102 270.352L89.0936 273.739ZM90.2921 269.713L92.4381 271.188C92.6853 271.358 92.9311 271.446 93.1755 271.453C93.4231 271.461 93.6421 271.392 93.8326 271.246C94.0242 271.096 94.1645 270.872 94.2535 270.573C94.3802 270.147 94.3522 269.714 94.1694 269.275C93.9899 268.837 93.7073 268.486 93.3216 268.221L91.1755 266.746L90.2921 269.713ZM95.825 279.356C95.413 279.073 95.0953 278.753 94.8719 278.396C94.6518 278.041 94.5152 277.68 94.4623 277.311C94.4104 276.938 94.433 276.589 94.53 276.263C94.6351 275.91 94.7856 275.658 94.9816 275.506C95.1809 275.357 95.4078 275.282 95.6621 275.281C95.9198 275.283 96.188 275.336 96.4668 275.44C96.783 275.565 97.1189 275.717 97.4744 275.897C97.8311 276.072 98.169 276.245 98.4881 276.413C98.8105 276.584 99.0736 276.721 99.2772 276.824L99.0267 276.825C99.2396 276.163 99.2792 275.59 99.1455 275.105C99.0162 274.619 98.6631 274.178 98.0862 273.782C97.6808 273.503 97.3142 273.38 96.9866 273.414C96.6634 273.446 96.3828 273.648 96.1449 274.02L95.6179 273.429C95.9077 272.949 96.2823 272.685 96.7417 272.636C97.201 272.587 97.7192 272.76 98.2961 273.157C98.7872 273.495 99.1662 273.889 99.4329 274.34C99.703 274.794 99.844 275.267 99.856 275.76C99.863 275.963 99.8433 276.183 99.7968 276.419C99.7515 276.651 99.6958 276.878 99.6296 277.101L98.4773 280.971L97.9581 280.614L98.4444 278.981L98.6201 279.171C98.2919 279.62 97.8817 279.857 97.3893 279.884C96.897 279.91 96.3756 279.734 95.825 279.356ZM96.0362 278.767C96.3988 279.016 96.7392 279.16 97.0573 279.198C97.3766 279.233 97.6608 279.172 97.9099 279.015C98.1635 278.857 98.3688 278.608 98.5257 278.268C98.6203 278.083 98.7052 277.872 98.7804 277.632C98.8556 277.393 98.9103 277.216 98.9445 277.101L99.137 277.455C98.9136 277.338 98.6467 277.194 98.3365 277.022C98.0295 276.853 97.7137 276.687 97.389 276.524C97.0643 276.361 96.7652 276.231 96.4919 276.136C96.3221 276.079 96.1438 276.044 95.9571 276.031C95.7747 276.017 95.6063 276.056 95.4517 276.148C95.3005 276.243 95.1871 276.417 95.1118 276.67C95.0559 276.857 95.0395 277.072 95.0627 277.315C95.0892 277.559 95.1781 277.807 95.3295 278.059C95.4809 278.311 95.7164 278.547 96.0362 278.767ZM103.673 284.541L104.635 281.31C104.751 280.919 104.82 280.546 104.843 280.192C104.868 279.84 104.843 279.509 104.769 279.199C104.698 278.891 104.575 278.611 104.4 278.357C104.229 278.105 104.003 277.883 103.723 277.69C103.433 277.491 103.163 277.377 102.913 277.349C102.668 277.319 102.445 277.361 102.244 277.477C102.046 277.595 101.869 277.776 101.713 278.02C101.561 278.262 101.435 278.554 101.333 278.895L100.902 278.522C101.102 277.851 101.363 277.366 101.687 277.067C102.015 276.766 102.376 276.626 102.77 276.648C103.166 276.666 103.572 276.817 103.987 277.103C104.28 277.305 104.528 277.535 104.729 277.793C104.933 278.053 105.094 278.335 105.21 278.636C105.328 278.934 105.406 279.246 105.444 279.573C105.483 279.895 105.485 280.222 105.45 280.553C105.418 280.887 105.354 281.215 105.258 281.537L104.246 284.936L103.673 284.541ZM99.7613 281.853L101.61 275.643L102.13 275.999L101.714 277.397L101.768 277.434L100.335 282.247L99.7613 281.853ZM105.527 285.816L107.992 277.535L108.566 277.929L107.059 282.99L110.476 281.736L111.273 282.283L107.703 283.57L109.799 288.752L108.914 288.144L106.991 283.22L106.101 286.21L105.527 285.816Z" fill="white"/>
</g>
<defs>
<filter id="filter0_bii_2314_754" x="-59.5844" y="-56.1191" width="540.625" height="603.729" filterUnits="userSpaceOnUse" color-interpolation-filters="sRGB">
<feFlood flood-opacity="0" result="BackgroundImageFix"/>
<feGaussianBlur in="BackgroundImageFix" stdDeviation="32.1909"/>
<feComposite in2="SourceAlpha" operator="in" result="effect1_backgroundBlur_2314_754"/>
<feBlend mode="normal" in="SourceGraphic" in2="effect1_backgroundBlur_2314_754" result="shape"/>
<feColorMatrix in="SourceAlpha" type="matrix" values="0 0 0 0 0 0 0 0 0 0 0 0 0 0 0 0 0 0 127 0" result="hardAlpha"/>
<feOffset dx="-0.515054" dy="-0.515054"/>
<feGaussianBlur stdDeviation="0.386291"/>
<feComposite in2="hardAlpha" operator="arithmetic" k2="-1" k3="1"/>
<feColorMatrix type="matrix" values="0 0 0 0 0 0 0 0 0 0 0 0 0 0 0 0 0 0 0.36 0"/>
<feBlend mode="normal" in2="shape" result="effect2_innerShadow_2314_754"/>
<feColorMatrix in="SourceAlpha" type="matrix" values="0 0 0 0 0 0 0 0 0 0 0 0 0 0 0 0 0 0 127 0" result="hardAlpha"/>
<feOffset dx="1.28764" dy="1.03011"/>
<feGaussianBlur stdDeviation="0.515054"/>
<feComposite in2="hardAlpha" operator="arithmetic" k2="-1" k3="1"/>
<feColorMatrix type="matrix" values="0 0 0 0 1 0 0 0 0 1 0 0 0 0 1 0 0 0 0.25 0"/>
<feBlend mode="normal" in2="effect2_innerShadow_2314_754" result="effect3_innerShadow_2314_754"/>
</filter>
<filter id="filter1_i_2314_754" x="81.2139" y="116.582" width="52.9673" height="62.2812" filterUnits="userSpaceOnUse" color-interpolation-filters="sRGB">
<feFlood flood-opacity="0" result="BackgroundImageFix"/>
<feBlend mode="normal" in="SourceGraphic" in2="BackgroundImageFix" result="shape"/>
<feColorMatrix in="SourceAlpha" type="matrix" values="0 0 0 0 0 0 0 0 0 0 0 0 0 0 0 0 0 0 127 0" result="hardAlpha"/>
<feOffset dx="-0.772581" dy="-0.772581"/>
<feComposite in2="hardAlpha" operator="arithmetic" k2="-1" k3="1"/>
<feColorMatrix type="matrix" values="0 0 0 0 0 0 0 0 0 0 0 0 0 0 0 0 0 0 0.25 0"/>
<feBlend mode="normal" in2="shape" result="effect1_innerShadow_2314_754"/>
</filter>
<linearGradient id="paint0_linear_2314_754" x1="0" y1="0" x2="49.8787" y2="39.8217" gradientUnits="userSpaceOnUse">
<stop stop-color="#ABABAB"/>
<stop offset="0.3125" stop-color="white"/>
<stop offset="0.630208" stop-color="#BDBDBD"/>
<stop offset="1" stop-color="#5E5E5E"/>
</linearGradient>
<linearGradient id="paint1_linear_2314_754" x1="91.4766" y1="116.167" x2="128.472" y2="174.849" gradientUnits="userSpaceOnUse">
<stop stop-color="#7D7D7D"/>
<stop offset="0.494792" stop-color="white"/>
<stop offset="1" stop-color="#1C1C1C"/>
</linearGradient>
<clipPath id="clip0_2314_754">
<rect width="419.347" height="264.327" fill="white" transform="matrix(0.824126 0.566406 -0.285354 0.958422 75.6445 0.316406)"/>
</clipPath>
</defs>
</svg>
