<svg width="445" height="505" viewBox="0 0 445 505" fill="none" xmlns="http://www.w3.org/2000/svg">
<g clip-path="url(#clip0_2314_753)">
<g filter="url(#filter0_bii_2314_753)">
<rect width="264.327" height="419.347" rx="19.3145" transform="matrix(-0.475931 -0.879483 0.760406 -0.649448 126.04 504.816)" fill="#F591CE"/>
<rect width="264.327" height="419.347" rx="19.3145" transform="matrix(-0.475931 -0.879483 0.760406 -0.649448 126.04 504.816)" fill="url(#paint0_radial_2314_753)"/>
</g>
<rect opacity="0.48" width="54.8564" height="54.8564" rx="27.4282" transform="matrix(0.760406 -0.649448 0.475931 0.879483 248.71 93.4434)" fill="#F591CE"/>
<rect opacity="0.7" width="54.8564" height="54.8564" rx="27.4282" transform="matrix(0.760406 -0.649448 0.475931 0.879483 273.892 71.9355)" fill="#FF00A8"/>
<g filter="url(#filter1_i_2314_753)">
<rect width="55.6691" height="39.8217" rx="9.01345" transform="matrix(0.760406 -0.649448 0.475931 0.879483 79.4478 318.74)" fill="url(#paint1_linear_2314_753)"/>
</g>
<path d="M85.9584 330.904L100.353 318.61C99.5126 314.594 98.4654 305.735 101 302.423C102.341 301.93 105.776 301.34 108.799 302.928M92.0337 342.131L106.428 329.837C109.437 335.396 115.925 335.796 118.792 335.301C121.662 330.87 120.913 321.982 120.18 318.092L134.414 305.935M129.785 297.381L115.551 309.538C114.152 308.692 111.509 306.241 112.127 303.212" stroke="url(#paint2_linear_2314_753)" stroke-width="0.772581"/>
<path d="M144.125 287.146C145.22 287.778 147.372 289.807 147.219 292.864M146.412 282.188C148.103 283.226 151.534 286.644 151.73 292.016M148.264 277.471C150.509 278.906 155.151 283.685 155.758 291.319M150.59 273.002C153.344 274.613 159.066 280.316 159.921 290.245" stroke="white" stroke-width="2.8328" stroke-linecap="round" stroke-linejoin="round"/>
<path d="M149.848 439.922C149.194 440.481 148.552 440.785 147.921 440.835C147.288 440.882 146.695 440.707 146.142 440.31C145.589 439.913 145.103 439.325 144.682 438.548C144.261 437.771 144.005 436.986 143.915 436.194C143.824 435.402 143.914 434.647 144.183 433.928C144.45 433.206 144.911 432.565 145.565 432.007C146.328 431.355 147.075 431.049 147.804 431.09C148.531 431.127 149.19 431.449 149.781 432.056L149.208 432.846C148.742 432.364 148.234 432.102 147.681 432.059C147.129 432.016 146.558 432.247 145.968 432.751C145.454 433.19 145.1 433.69 144.906 434.252C144.711 434.814 144.659 435.412 144.748 436.045C144.839 436.673 145.052 437.306 145.389 437.944C145.729 438.58 146.114 439.066 146.545 439.402C146.979 439.736 147.443 439.894 147.935 439.875C148.428 439.849 148.932 439.617 149.446 439.178C150.036 438.674 150.417 438.092 150.588 437.431C150.758 436.766 150.751 436.075 150.567 435.358L151.363 434.979C151.595 435.892 151.592 436.782 151.353 437.649C151.114 438.512 150.612 439.27 149.848 439.922ZM153.635 436.457L150.551 430.758L151.153 430.244L151.895 431.616L151.68 431.537C151.643 431.322 151.631 431.106 151.643 430.89C151.653 430.67 151.685 430.471 151.739 430.291C151.796 430.052 151.892 429.826 152.026 429.613C152.158 429.398 152.308 429.21 152.476 429.052C152.642 428.89 152.807 428.769 152.973 428.689L153.367 429.417C153.159 429.517 152.956 429.673 152.759 429.883C152.561 430.093 152.418 430.359 152.33 430.681C152.246 430.969 152.219 431.252 152.249 431.529C152.277 431.804 152.341 432.069 152.439 432.324C152.535 432.576 152.644 432.815 152.766 433.04L154.305 435.884L153.635 436.457ZM158.934 435.635L158.268 431.828L158.762 432.703L153.288 428.42L154 427.812L158.543 431.424L158.251 431.673L157.112 425.154L157.796 424.57L159.604 435.062L158.934 435.635ZM163.594 428.175C163.016 428.668 162.462 428.931 161.932 428.962C161.404 428.99 160.959 428.784 160.596 428.343L161.209 427.627C161.457 427.888 161.763 428.005 162.126 427.978C162.491 427.944 162.864 427.764 163.248 427.436C163.622 427.117 163.868 426.775 163.987 426.411C164.104 426.044 164.078 425.704 163.908 425.391C163.813 425.215 163.701 425.102 163.572 425.053C163.444 424.997 163.25 425.012 162.989 425.096C162.727 425.18 162.353 425.335 161.866 425.561C161.343 425.802 160.917 425.96 160.588 426.035C160.26 426.11 159.992 426.102 159.787 426.01C159.58 425.914 159.404 425.733 159.259 425.465C159.084 425.142 159.01 424.791 159.036 424.413C159.061 424.032 159.178 423.655 159.385 423.282C159.591 422.906 159.879 422.559 160.25 422.242C160.621 421.925 160.991 421.713 161.359 421.604C161.728 421.489 162.07 421.48 162.385 421.576C162.699 421.673 162.963 421.872 163.175 422.174L162.568 422.901C162.342 422.606 162.054 422.466 161.706 422.48C161.359 422.488 160.998 422.647 160.624 422.957C160.268 423.245 160.026 423.566 159.896 423.918C159.765 424.267 159.772 424.577 159.919 424.848C160.001 424.999 160.111 425.095 160.249 425.137C160.385 425.175 160.582 425.153 160.84 425.071C161.102 424.987 161.456 424.836 161.903 424.619C162.429 424.366 162.861 424.202 163.199 424.129C163.538 424.056 163.816 424.073 164.034 424.18C164.252 424.287 164.441 424.488 164.601 424.784C164.892 425.322 164.948 425.894 164.769 426.5C164.591 427.099 164.199 427.658 163.594 428.175ZM169.149 423.206C168.909 423.509 168.649 423.77 168.371 423.987C168.095 424.201 167.819 424.34 167.541 424.402C167.267 424.462 167.006 424.412 166.76 424.252C166.557 424.116 166.393 423.945 166.268 423.738C166.144 423.525 166.007 423.28 165.856 423.002L163.032 417.783L163.698 417.214L166.505 422.401C166.635 422.64 166.745 422.84 166.835 422.999C166.927 423.152 167.035 423.265 167.16 423.339C167.397 423.481 167.646 423.474 167.908 423.317C168.173 423.158 168.464 422.894 168.781 422.526L169.149 423.206ZM163.195 420.931L162.835 420.266L166.065 417.507L166.425 418.172L163.195 420.931ZM171.615 421.331C171.244 421.648 170.891 421.837 170.554 421.898C170.221 421.956 169.923 421.91 169.659 421.76C169.396 421.61 169.182 421.383 169.018 421.081C168.851 420.771 168.761 420.462 168.749 420.153C168.739 419.838 168.788 419.53 168.898 419.231C169.01 418.929 169.17 418.636 169.376 418.352C169.587 418.069 169.829 417.772 170.102 417.462C170.376 417.146 170.647 416.845 170.915 416.56C171.184 416.268 171.417 416.009 171.615 415.784L171.469 416.155C171.174 415.585 170.854 415.248 170.51 415.146C170.166 415.044 169.749 415.202 169.259 415.621C168.921 415.909 168.683 416.241 168.544 416.617C168.408 416.99 168.396 417.407 168.507 417.868L167.735 418.203C167.571 417.597 167.583 417.008 167.772 416.435C167.96 415.863 168.327 415.344 168.871 414.879C169.321 414.495 169.756 414.267 170.176 414.197C170.597 414.12 170.973 414.211 171.304 414.468C171.454 414.582 171.594 414.732 171.722 414.921C171.851 415.109 171.972 415.309 172.087 415.52L174.003 419.061L173.405 419.571L172.631 418.141L172.85 418.078C172.947 418.71 172.889 419.305 172.675 419.863C172.461 420.421 172.108 420.911 171.615 421.331ZM171.33 420.595C171.644 420.327 171.882 420.028 172.046 419.698C172.21 419.368 172.302 419.029 172.323 418.682C172.342 418.331 172.296 417.995 172.185 417.674C172.122 417.46 172.033 417.242 171.918 417.022C171.802 416.798 171.714 416.631 171.655 416.522L171.993 416.457C171.784 416.687 171.555 416.934 171.306 417.197C171.061 417.459 170.821 417.722 170.587 417.989C170.356 418.253 170.155 418.505 169.982 418.745C169.867 418.91 169.767 419.091 169.682 419.287C169.595 419.48 169.546 419.681 169.535 419.891C169.527 420.098 169.578 420.304 169.689 420.508C169.778 420.673 169.9 420.803 170.054 420.898C170.21 420.991 170.395 421.021 170.609 420.987C170.825 420.952 171.066 420.821 171.33 420.595ZM175.282 417.969L171.084 410.212L171.755 409.639L175.952 417.396L175.282 417.969ZM177.32 416.228L173.208 408.629L175.745 406.462C176.113 406.148 176.481 405.962 176.85 405.904C177.219 405.846 177.561 405.902 177.874 406.071C178.186 406.236 178.44 406.499 178.634 406.858C178.855 407.266 178.957 407.71 178.942 408.191C178.925 408.669 178.791 409.105 178.542 409.498L178.392 409.247C178.894 409.024 179.362 408.985 179.796 409.129C180.23 409.273 180.582 409.594 180.852 410.094C181.09 410.534 181.215 410.982 181.227 411.44C181.237 411.895 181.143 412.333 180.944 412.754C180.745 413.176 180.453 413.552 180.067 413.882L177.32 416.228ZM177.593 414.907L179.5 413.278C179.767 413.049 179.978 412.79 180.132 412.499C180.284 412.204 180.366 411.903 180.377 411.595C180.391 411.285 180.32 410.985 180.164 410.697C180.012 410.415 179.819 410.21 179.584 410.081C179.35 409.952 179.099 409.904 178.832 409.936C178.566 409.963 178.31 410.081 178.064 410.292L176.034 412.026L177.593 414.907ZM175.637 411.292L177.494 409.706C177.703 409.527 177.865 409.309 177.98 409.052C178.092 408.791 178.146 408.521 178.142 408.242C178.141 407.96 178.072 407.693 177.934 407.439C177.74 407.08 177.474 406.881 177.137 406.84C176.802 406.797 176.469 406.917 176.137 407.2L174.28 408.786L175.637 411.292ZM184.412 410.402C184.041 410.719 183.687 410.908 183.351 410.969C183.018 411.027 182.719 410.981 182.455 410.831C182.192 410.681 181.978 410.454 181.814 410.152C181.647 409.842 181.557 409.533 181.546 409.224C181.535 408.909 181.585 408.601 181.694 408.302C181.807 408 181.966 407.707 182.172 407.423C182.384 407.14 182.626 406.843 182.898 406.533C183.172 406.217 183.443 405.916 183.711 405.631C183.98 405.339 184.214 405.08 184.412 404.855L184.266 405.226C183.97 404.656 183.65 404.319 183.306 404.217C182.962 404.115 182.545 404.273 182.055 404.692C181.717 404.98 181.479 405.312 181.34 405.688C181.204 406.061 181.192 406.478 181.303 406.939L180.531 407.274C180.367 406.668 180.38 406.079 180.568 405.506C180.756 404.934 181.123 404.415 181.667 403.95C182.117 403.566 182.552 403.338 182.972 403.268C183.393 403.191 183.769 403.282 184.1 403.539C184.25 403.653 184.39 403.803 184.518 403.992C184.647 404.18 184.768 404.38 184.883 404.591L186.799 408.132L186.201 408.643L185.427 407.212L185.646 407.149C185.744 407.781 185.685 408.376 185.472 408.934C185.258 409.492 184.904 409.982 184.412 410.402ZM184.127 409.666C184.44 409.398 184.678 409.099 184.842 408.769C185.006 408.439 185.098 408.1 185.119 407.753C185.139 407.402 185.092 407.066 184.981 406.745C184.918 406.531 184.83 406.313 184.715 406.093C184.598 405.869 184.51 405.702 184.451 405.593L184.789 405.528C184.58 405.758 184.351 406.005 184.103 406.268C183.857 406.53 183.617 406.793 183.383 407.06C183.153 407.324 182.951 407.576 182.778 407.816C182.663 407.981 182.563 408.162 182.478 408.358C182.391 408.551 182.342 408.752 182.331 408.962C182.323 409.169 182.375 409.375 182.485 409.579C182.574 409.744 182.696 409.874 182.85 409.969C183.007 410.062 183.192 410.092 183.405 410.058C183.621 410.023 183.862 409.892 184.127 409.666ZM191.545 404.078L189.972 401.171C189.8 400.854 189.618 400.586 189.423 400.366C189.227 400.143 189.017 399.982 188.795 399.884C188.574 399.78 188.343 399.751 188.101 399.798C187.863 399.842 187.614 399.974 187.356 400.195C187.119 400.398 186.934 400.624 186.803 400.875C186.675 401.124 186.597 401.391 186.57 401.677C186.543 401.956 186.567 402.25 186.64 402.558C186.713 402.866 186.837 403.182 187.012 403.505L186.472 403.789C186.156 403.205 185.979 402.639 185.94 402.091C185.901 401.543 185.982 401.034 186.182 400.565C186.382 400.096 186.682 399.69 187.084 399.347C187.379 399.095 187.664 398.929 187.941 398.847C188.22 398.763 188.484 398.746 188.733 398.795C188.985 398.842 189.221 398.941 189.441 399.093C189.659 399.241 189.86 399.427 190.043 399.651C190.225 399.872 190.385 400.11 190.524 400.367L192.22 403.501L191.545 404.078ZM187.982 407.122L184.898 401.422L185.505 400.904L186.264 402.308L186.333 402.249L188.657 406.545L187.982 407.122ZM193.4 402.494L189.292 394.892L189.968 394.315L192.481 398.959L193.195 394.336L194.089 393.573L193.322 398.394L197.474 399.014L196.498 399.848L192.595 399.17L194.08 401.914L193.4 402.494Z" fill="white"/>
</g>
<defs>
<filter id="filter0_bii_2314_753" x="-57.5922" y="-55.9667" width="560.337" height="616.752" filterUnits="userSpaceOnUse" color-interpolation-filters="sRGB">
<feFlood flood-opacity="0" result="BackgroundImageFix"/>
<feGaussianBlur in="BackgroundImageFix" stdDeviation="32.1909"/>
<feComposite in2="SourceAlpha" operator="in" result="effect1_backgroundBlur_2314_753"/>
<feBlend mode="normal" in="SourceGraphic" in2="effect1_backgroundBlur_2314_753" result="shape"/>
<feColorMatrix in="SourceAlpha" type="matrix" values="0 0 0 0 0 0 0 0 0 0 0 0 0 0 0 0 0 0 127 0" result="hardAlpha"/>
<feOffset dx="-0.515054" dy="-0.515054"/>
<feGaussianBlur stdDeviation="0.386291"/>
<feComposite in2="hardAlpha" operator="arithmetic" k2="-1" k3="1"/>
<feColorMatrix type="matrix" values="0 0 0 0 0 0 0 0 0 0 0 0 0 0 0 0 0 0 0.36 0"/>
<feBlend mode="normal" in2="shape" result="effect2_innerShadow_2314_753"/>
<feColorMatrix in="SourceAlpha" type="matrix" values="0 0 0 0 0 0 0 0 0 0 0 0 0 0 0 0 0 0 127 0" result="hardAlpha"/>
<feOffset dx="1.28764" dy="1.03011"/>
<feGaussianBlur stdDeviation="0.515054"/>
<feComposite in2="hardAlpha" operator="arithmetic" k2="-1" k3="1"/>
<feColorMatrix type="matrix" values="0 0 0 0 1 0 0 0 0 1 0 0 0 0 1 0 0 0 0.25 0"/>
<feBlend mode="normal" in2="effect2_innerShadow_2314_753" result="effect3_innerShadow_2314_753"/>
</filter>
<filter id="filter1_i_2314_753" x="82.5049" y="286.512" width="55.1694" height="63.3252" filterUnits="userSpaceOnUse" color-interpolation-filters="sRGB">
<feFlood flood-opacity="0" result="BackgroundImageFix"/>
<feBlend mode="normal" in="SourceGraphic" in2="BackgroundImageFix" result="shape"/>
<feColorMatrix in="SourceAlpha" type="matrix" values="0 0 0 0 0 0 0 0 0 0 0 0 0 0 0 0 0 0 127 0" result="hardAlpha"/>
<feOffset dx="-0.772581" dy="-0.772581"/>
<feComposite in2="hardAlpha" operator="arithmetic" k2="-1" k3="1"/>
<feColorMatrix type="matrix" values="0 0 0 0 0 0 0 0 0 0 0 0 0 0 0 0 0 0 0.25 0"/>
<feBlend mode="normal" in2="shape" result="effect1_innerShadow_2314_753"/>
</filter>
<radialGradient id="paint0_radial_2314_753" cx="0" cy="0" r="1" gradientUnits="userSpaceOnUse" gradientTransform="translate(-8.22845 -5.89196) rotate(60.0023) scale(459.81 289.832)">
<stop stop-color="white" stop-opacity="0.3"/>
<stop offset="1" stop-color="white" stop-opacity="0"/>
</radialGradient>
<linearGradient id="paint1_linear_2314_753" x1="0" y1="0" x2="49.8787" y2="39.8217" gradientUnits="userSpaceOnUse">
<stop stop-color="#ABABAB"/>
<stop offset="0.3125" stop-color="white"/>
<stop offset="0.630208" stop-color="#BDBDBD"/>
<stop offset="1" stop-color="#5E5E5E"/>
</linearGradient>
<linearGradient id="paint2_linear_2314_753" x1="82.0561" y1="319.387" x2="136.809" y2="322.204" gradientUnits="userSpaceOnUse">
<stop stop-color="#7D7D7D"/>
<stop offset="0.494792" stop-color="white"/>
<stop offset="1" stop-color="#1C1C1C"/>
</linearGradient>
<clipPath id="clip0_2314_753">
<rect width="419.347" height="264.327" fill="white" transform="matrix(0.760406 -0.649448 0.475931 0.879483 0.23877 272.346)"/>
</clipPath>
</defs>
</svg>
