<svg width="76" height="17" viewBox="0 0 76 17" fill="none" xmlns="http://www.w3.org/2000/svg">
<path d="M0 0.816406C8.82997 0.816406 16 7.98643 16 16.8164H8C8 12.3899 4.42651 8.81641 0 8.81641V0.816406Z" fill="#F5BD01"/>
<path d="M20 16.8164C20 7.98643 27.17 0.816406 36 0.816406L36 8.81641C31.5735 8.81641 28 12.3899 28 16.8164L20 16.8164Z" fill="#F5BD01"/>
<path d="M56 0.816406C56 9.64638 48.83 16.8164 40 16.8164L40 8.81641C44.4265 8.81641 48 5.24292 48 0.816406L56 0.816406Z" fill="#F5BD01"/>
<path d="M60 0.816406C68.83 0.816406 76 7.98643 76 16.8164H68C68 12.3899 64.4265 8.81641 60 8.81641V0.816406Z" fill="#F5BD01"/>
</svg>
