<svg width="76" height="16" viewBox="0 0 76 16" fill="none" xmlns="http://www.w3.org/2000/svg">
<path d="M0 0C8.82997 0 16 7.17003 16 16H8C8 11.5735 4.42651 8 0 8V0Z" fill="#2E2EC8"/>
<path d="M20 16C20 7.17003 27.17 -3.13412e-07 36 -6.99382e-07L36 8C31.5735 8 28 11.5735 28 16L20 16Z" fill="#F591CE"/>
<path d="M56 0C56 8.82997 48.83 16 40 16L40 8C44.4265 8 48 4.42651 48 -3.49691e-07L56 0Z" fill="#00D5AE"/>
<path d="M60 0C68.83 0 76 7.17003 76 16H68C68 11.5735 64.4265 8 60 8V0Z" fill="#F5BD01"/>
</svg>
